<svg xmlns="http://www.w3.org/2000/svg" xmlns:xlink="http://www.w3.org/1999/xlink" width="1440" height="331" version="1.1" viewBox="0 0 1440 331"><title>Wave</title><desc>Created with Sketch.</desc><defs><rect id="path-1" width="1441" height="418.738" x="0" y="0"/><linearGradient id="linearGradient-3" x1="50%" x2="49.29%" y1="13.334%" y2="95.57%"><stop offset="0%" stop-color="#E7E5E2"/><stop offset="100%" stop-color="#F3F2F1" stop-opacity="0"/></linearGradient><linearGradient id="linearGradient-4" x1="49.29%" x2="49.29%" y1="32.29%" y2="95.57%"><stop offset="0%" stop-color="#E7E5E2"/><stop offset="100%" stop-color="#F3F2F1" stop-opacity="0"/></linearGradient><linearGradient id="linearGradient-5" x1="50%" x2="49.708%" y1="0%" y2="52.279%"><stop offset="0%" stop-color="#F3F2F1"/><stop offset="100%" stop-color="#F3F2F1"/></linearGradient></defs><g id="Homepage" fill="none" fill-rule="evenodd" stroke="none" stroke-width="1"><g id="Homepage_01.1" transform="translate(0.000000, -1449.000000)"><g id="Group" transform="translate(0.000000, 1361.000000)"><g id="Wave"><mask id="mask-2" fill="#fff"><use xlink:href="#path-1"/></mask><path id="_1" fill="url(#linearGradient-3)" d="M122.376053,88.3478748 C353.157403,85.8605956 514.991566,269.878701 613.333262,305.50351 C711.674958,341.128318 773.14146,304.132011 834.60502,267.140584 C896.068579,230.149157 971.875107,209.596195 1088.65734,308.244067 C1205.43958,406.891939 1321.95707,176.279996 1321.95707,176.279996 C1321.95707,176.279996 1355.26555,106.025683 1441.41565,91.0612361 L1441.41565,422.123264 L-0.163348179,422.123264 L-0.163348179,91.2661183 C51.4507411,88.6754848 92.297208,87.702737 122.376053,88.3478748 Z" mask="url(#mask-2)" opacity=".2" transform="translate(720.626148, 255.139100) scale(-1, 1) translate(-720.626148, -255.139100)" style="mix-blend-mode:multiply"/><path id="_3" fill="url(#linearGradient-4)" d="M-206,419.245016 C-81.3629722,417.021553 140.574382,445.20844 190.123654,357.20534 C210.57678,320.879105 228.690863,207.741141 309.740704,207.741141 C400.580892,207.741141 386.521077,299.606553 445.242481,327.002432 C525.585975,364.484552 637.10612,210.139704 707.852729,306.684559 C751.041358,365.618305 815.637813,287.999036 831.056844,255.841304 C846.475875,223.683573 885.512676,123 964.075932,123 C1145.08808,123 1020.00195,400.599462 1453.63312,419.245016 C1311.32877,423.618345 758.117732,423.618345 -206,419.245016 Z" mask="url(#mask-2)" opacity=".4" transform="translate(623.816562, 272.762506) scale(-1, 1) translate(-623.816562, -272.762506)" style="mix-blend-mode:multiply"/><path id="_2" fill="url(#linearGradient-5)" d="M66.7602074,423.281517 C175.859115,410.468127 189.366118,382.859543 203.911417,366.101182 C218.456715,349.34282 259.857197,262.587627 335.868859,262.587627 C411.880521,262.587627 434.57794,361.171521 484.450481,386.804514 C534.323023,412.437507 565.494795,367.174062 596.666566,340.556379 C627.838337,313.938697 666.280465,299.149715 725.506831,370.131237 C784.733196,441.112759 842.916682,297.180336 842.916682,297.180336 C842.916682,297.180336 863.392667,240 914.142555,240 C964.892442,240 988.381128,310.981522 1003.96701,338.583894 C1019.5529,366.186266 1013.92364,432.554967 1382.35794,432.554967 C432.560179,434.914927 -5.97239737,431.823777 66.7602074,423.281517 Z" mask="url(#mask-2)" opacity=".5" transform="translate(720.678968, 336.660622) scale(-1, 1) translate(-720.678968, -336.660622)"/></g></g></g></g></svg>